# xmcd
#
# Track frame offsets: 
#        182
#        29140
#        57817
#        75132
#        79330
#        91027
#        109147
#        141662
#        163922
#        169247
#
# Disc length: 2465 seconds
#
# Revision: 6
# Processed by: cddbd v1.5.2PL0 Copyright (c) Steve Scherf et al.
# Submitted via: ExactAudioCopy v1.0b2
#
DISCID=80099f0a
DTITLE=Oscar Peterson - Oscar Peterson Plays Porgy and Bess
DYEAR=1993
DGENRE=Jazz
TTITLE0=I Got Plenty o' Nuttin'
TTITLE1=I Wants to Stay Here (aka "I Loves You Porgy")
TTITLE2=Summertime
TTITLE3=Oh Dey's So Fresh and Fine (Strawberry Woman)
TTITLE4=Oh Lawd, I'm on My Way
TTITLE5=It Ain't Necessarily So
TTITLE6=There's a Boat dat's Leavin' Soon for New York
TTITLE7=Oh Bess, Oh Where's My Bess?
TTITLE8=Here Come de Honey Man
TTITLE9=Bess, You Is My Woman Now
EXTD=Record Label:\tVerve/Polygram\nCatalog Number:\t314 519 807-2\nRe
EXTD=cording Date:\tOctober 12, 1959\nOriginal Release:\t1959?\nCD Rei
EXTD=ssue:\t1993\n\nOscar Peterson \tPiano\nRay Brown:\tBass\nEd Thigp
EXTD=en:\tDrums
EXTT0=
EXTT1=
EXTT2=
EXTT3=
EXTT4=
EXTT5=
EXTT6=
EXTT7=
EXTT8=
EXTT9=
PLAYORDER=
